<svg id="Layer_1" data-name="Layer 1" xmlns="http://www.w3.org/2000/svg" viewBox="0 0 343.8 151.1">
  <defs>
    <style>
      .cls-1 {
        fill: #fff;
      }
    </style>
  </defs>
  <g>
    <path class="cls-1" d="M477.9,355.5H369.5a75.6,75.6,0,0,0-127.5,0H134.1l11,11h91a85.5,85.5,0,0,0-4,12.4H157.4l11,11h62c-.1,2-.2,4-.2,6.1s.1,4.2.2,6.3H180.8l10.9,11h40.5a73.7,73.7,0,0,0,4,12.3H204.1l11,11H242a75.6,75.6,0,0,0,127.4,0h27.5l11-11H375.2a73.7,73.7,0,0,0,4-12.3h41.1l10.9-11H381c.1-2.1.2-4.2.2-6.3s-.1-4.1-.2-6.1h62.6l11-11H379.3a74.8,74.8,0,0,0-4-12.4h91.6ZM306,460.6a64.5,64.5,0,1,1,64.5-64.5A64.5,64.5,0,0,1,306,460.6Z" transform="translate(-134.1 -320.5)"/>
    <polygon class="cls-1" points="138.7 85 130 58.6 120.1 58.6 120.1 92.6 127.3 92.6 127.3 67.4 134.9 92.6 142.5 92.6 150.1 67.4 150.1 92.6 157.4 92.6 157.4 58.6 147.4 58.6 138.7 85"/>
    <polygon class="cls-1" points="201.9 83.5 188.2 58.6 180.2 58.6 180.2 92.6 187 92.6 187 68.7 200.6 92.8 208.7 92.6 208.7 58.6 202 58.6 201.9 83.5"/>
    <rect class="cls-1" x="165.3" y="58.5" width="6.9" height="34.03"/>
    <rect class="cls-1" x="216.6" y="58.5" width="6.9" height="34.03"/>
  </g>
</svg>
